<svg width="25" height="17" viewBox="0 0 25 17" fill="none" xmlns="http://www.w3.org/2000/svg">
<path d="M24.6699 8.22806C24.6699 12.7653 20.9916 16.4434 16.4539 16.4434C14.3462 16.4434 12.4241 15.6497 10.9696 14.3453C13.2995 13.2964 14.9216 10.9546 14.9216 8.23396C14.9216 5.50986 13.2955 3.16566 10.9607 2.11876C12.4164 0.809657 14.3419 0.0128174 16.4539 0.0128174C20.9916 0.0128174 24.6699 3.69086 24.6699 8.22806Z" fill="#F02E65"/>
<path d="M13.1697 1.67063C8.12392 -2.1422 0.842121 0.936333 0.0627405 7.21223C-0.299429 10.129 0.924211 13.017 3.27158 14.7858C8.32022 18.5952 15.5999 15.5114 16.375 9.23493C16.7346 6.32183 15.5127 3.43853 13.1697 1.67063ZM12.2559 2.88123C16.3726 5.98733 15.5825 12.3843 10.8339 14.396C8.63032 15.3296 6.09582 15.0167 4.18535 13.5751C0.0689306 10.4689 0.858781 4.07193 5.60732 2.06033C7.81102 1.12693 10.3455 1.43973 12.2559 2.88123Z" fill="#F02E65"/>
<path d="M8.44074 5.38589C8.43104 5.41009 8.30514 5.90349 8.17014 6.48879C8.02964 7.07399 7.80714 7.99779 7.68154 8.54419C7.43964 9.54539 7.29444 10.2032 7.29444 10.2902C7.29444 10.3142 7.44454 10.3338 7.62814 10.3338H7.96204L8.11184 9.66619C8.19904 9.30359 8.39264 8.47159 8.54724 7.81869C8.70204 7.16579 8.89054 6.37259 8.96324 6.05319C9.03574 5.73399 9.10834 5.44409 9.12284 5.41009C9.13734 5.36659 9.05504 5.35229 8.80344 5.35229C8.61484 5.35229 8.45034 5.36659 8.44074 5.38589ZM5.84334 7.47999L5.39844 7.96379L5.52924 8.11859C5.60154 8.20549 5.80014 8.4233 5.96924 8.6024L6.27894 8.93099H7.15924L6.74314 8.48129C6.51564 8.23969 6.32704 8.00729 6.32704 7.97839C6.32704 7.94449 6.50124 7.72699 6.71424 7.49469C6.92694 7.25789 7.10114 7.05449 7.10114 7.03039C7.10114 7.01089 6.91734 6.9965 6.69494 6.9965H6.29344L5.84334 7.47999ZM9.22904 7.02549C9.22904 7.04009 9.31134 7.13179 9.41284 7.23339C9.79034 7.61069 10.0562 7.93009 10.0416 7.99269C10.0321 8.02679 9.84814 8.254 9.62574 8.4909L9.22444 8.93099H9.67414L10.1239 8.9263L10.5348 8.47639C10.7624 8.22509 10.9461 8.00229 10.9461 7.97349C10.9461 7.94939 10.7527 7.72199 10.5107 7.46579L10.0758 6.9965H9.65474C9.41774 6.9965 9.22904 7.01089 9.22904 7.02549Z" fill="#F02E65"/>
</svg>
