<svg width="109" height="113" viewBox="0 0 109 113" fill="none" xmlns="http://www.w3.org/2000/svg">
<g clip-path="url(#clip0_23_8)">
<path d="M63.7077 110.284C60.8482 113.885 55.0503 111.912 54.9814 107.314L53.9739 40.0627H99.1936C107.384 40.0627 111.952 49.5228 106.859 55.9374L63.7077 110.284Z" fill="url(#paint0_linear_23_8)"/>
<path d="M63.7077 110.284C60.8482 113.885 55.0503 111.912 54.9814 107.314L53.9739 40.0627H99.1936C107.384 40.0627 111.952 49.5228 106.859 55.9374L63.7077 110.284Z" fill="url(#paint1_linear_23_8)" fill-opacity="0.2"/>
<path d="M45.317 2.07103C48.1765 -1.53037 53.9745 0.442938 54.0434 5.041L54.4849 72.2922H9.83113C1.64038 72.2922 -2.92775 62.8321 2.1655 56.4175L45.317 2.07103Z" fill="#3ECF8E"/>
</g>
<defs>
<linearGradient id="paint0_linear_23_8" x1="53.9739" y1="54.974" x2="94.1636" y2="71.8295" gradientUnits="userSpaceOnUse">
<stop stop-color="#249361"/>
<stop offset="1" stop-color="#3ECF8E"/>
</linearGradient>
<linearGradient id="paint1_linear_23_8" x1="36.1559" y1="30.578" x2="54.4845" y2="65.0806" gradientUnits="userSpaceOnUse">
<stop/>
<stop offset="1" stop-opacity="0"/>
</linearGradient>
<clipPath id="clip0_23_8">
<rect width="109" height="113" fill="white"/>
</clipPath>
</defs>
</svg>
